<?xml version="1.0" encoding="UTF-8"?>
<!DOCTYPE svg PUBLIC "-//W3C//DTD SVG 1.1//EN" "http://www.w3.org/Graphics/SVG/1.1/DTD/svg11.dtd">
<svg xmlns="http://www.w3.org/2000/svg" version="1.1" width="573px" height="528px" style="shape-rendering:geometricPrecision; text-rendering:geometricPrecision; image-rendering:optimizeQuality; fill-rule:evenodd; clip-rule:evenodd" xmlns:xlink="http://www.w3.org/1999/xlink">
<g><path style="opacity:0.989" fill="#5b8eca" d="M 527.5,44.5 C 526.272,43.6935 525.272,42.6935 524.5,41.5C 524.5,40.8333 524.5,40.1667 524.5,39.5C 523.892,36.6733 522.892,34.0067 521.5,31.5C 514.555,16.7472 502.888,8.24723 486.5,6C 351.833,5.33333 217.167,5.33333 82.5,6C 67.4088,9.59938 56.7421,18.4327 50.5,32.5C 48.7061,34.4282 47.7061,36.7616 47.5,39.5C 46.8333,40.8333 46.1667,42.1667 45.5,43.5C 47.9846,20.8437 60.3179,6.67701 82.5,1C 218.167,0.333333 353.833,0.333333 489.5,1C 511.93,6.93243 524.597,21.4324 527.5,44.5 Z"/></g>
<g><path style="opacity:1" fill="#1079be" d="M 521.5,31.5 C 373.832,32.0569 226.166,32.7236 78.5,33.5C 69.0919,33.4874 59.7586,33.154 50.5,32.5C 56.7421,18.4327 67.4088,9.59938 82.5,6C 217.167,5.33333 351.833,5.33333 486.5,6C 502.888,8.24723 514.555,16.7472 521.5,31.5 Z"/></g>
<g><path style="opacity:1" fill="#0f72b4" d="M 521.5,31.5 C 522.892,34.0067 523.892,36.6733 524.5,39.5C 365.5,38.1667 206.5,38.1667 47.5,39.5C 47.7061,36.7616 48.7061,34.4282 50.5,32.5C 59.7586,33.154 69.0919,33.4874 78.5,33.5C 226.166,32.7236 373.832,32.0569 521.5,31.5 Z"/></g>
<g><path style="opacity:1" fill="#0f6aa7" d="M 524.5,39.5 C 524.5,40.1667 524.5,40.8333 524.5,41.5C 365.666,42.3524 206.666,43.019 47.5,43.5C 47.5,42.1667 47.5,40.8333 47.5,39.5C 206.5,38.1667 365.5,38.1667 524.5,39.5 Z"/></g>
<g><path style="opacity:1" fill="#0b629c" d="M 524.5,41.5 C 525.272,42.6935 526.272,43.6935 527.5,44.5C 527.5,44.8333 527.5,45.1667 527.5,45.5C 527.167,45.5 526.833,45.5 526.5,45.5C 366.497,46.1653 206.83,45.4986 47.5,43.5C 206.666,43.019 365.666,42.3524 524.5,41.5 Z"/></g>
<g><path style="opacity:0.985" fill="#7db9e5" d="M 45.5,45.5 C 205.931,46.8324 366.264,46.8324 526.5,45.5C 526.833,45.5 527.167,45.5 527.5,45.5C 552.076,47.5998 567.076,60.5998 572.5,84.5C 572.5,87.1667 572.5,89.8333 572.5,92.5C 568.525,69.1918 554.859,55.5252 531.5,51.5C 367.334,50.3338 203.001,50.1672 38.5,51C 17.3545,56.6427 4.68785,70.1427 0.5,91.5C 2.70264,63.6308 17.7026,48.2975 45.5,45.5 Z"/></g>
<g><path style="opacity:1" fill="#337eb4" d="M 47.5,39.5 C 47.5,40.8333 47.5,42.1667 47.5,43.5C 206.83,45.4986 366.497,46.1653 526.5,45.5C 366.264,46.8324 205.931,46.8324 45.5,45.5C 45.5,44.8333 45.5,44.1667 45.5,43.5C 46.1667,42.1667 46.8333,40.8333 47.5,39.5 Z"/></g>
<g><path style="opacity:0.998" fill="#3ba6dd" d="M 531.5,51.5 C 457.499,51.3333 383.499,51.5 309.5,52C 345.833,52.3333 382.167,52.6667 418.5,53C 365.167,106.333 311.833,159.667 258.5,213C 259.056,213.383 259.389,213.883 259.5,214.5C 241.202,206.454 225.369,209.788 212,224.5C 186.058,263.405 159.891,302.072 133.5,340.5C 133.631,339.761 133.464,339.094 133,338.5C 89.3333,382.167 45.6667,425.833 2,469.5C 1.8171,472.365 1.3171,475.031 0.5,477.5C 0.5,348.833 0.5,220.167 0.5,91.5C 4.68785,70.1427 17.3545,56.6427 38.5,51C 203.001,50.1672 367.334,50.3338 531.5,51.5 Z"/></g>
<g><path style="opacity:0.996" fill="#35a5dc" d="M 531.5,51.5 C 554.859,55.5252 568.525,69.1918 572.5,92.5C 572.5,221.833 572.5,351.167 572.5,480.5C 568.822,502.014 556.488,515.847 535.5,522C 369.5,522.667 203.5,522.667 37.5,522C 16.9217,515.926 4.58834,502.426 0.5,481.5C 0.5,480.167 0.5,478.833 0.5,477.5C 1.3171,475.031 1.8171,472.365 2,469.5C 45.6667,425.833 89.3333,382.167 133,338.5C 133.464,339.094 133.631,339.761 133.5,340.5C 115.602,367.948 97.4354,395.281 79,422.5C 77.433,430.146 79.933,435.979 86.5,440C 196.499,440.5 306.499,440.667 416.5,440.5C 420.167,440.5 423.833,440.5 427.5,440.5C 432.5,440.5 437.5,440.5 442.5,440.5C 456.837,440.667 471.171,440.5 485.5,440C 493.042,436.016 495.542,429.849 493,421.5C 463.333,377.5 433.667,333.5 404,289.5C 390.693,274.394 374.859,270.894 356.5,279C 352.332,282.002 348.665,285.502 345.5,289.5C 342.474,293.205 339.808,297.205 337.5,301.5C 335.442,303.927 333.609,306.593 332,309.5C 331.329,310.252 330.496,310.586 329.5,310.5C 310.497,282.654 291.663,254.654 273,226.5C 268.901,221.892 264.401,217.892 259.5,214.5C 259.389,213.883 259.056,213.383 258.5,213C 311.833,159.667 365.167,106.333 418.5,53C 382.167,52.6667 345.833,52.3333 309.5,52C 383.499,51.5 457.499,51.3333 531.5,51.5 Z"/></g>
<g><path style="opacity:1" fill="#f8ee59" d="M 455.5,216.5 C 441.896,236.957 422.896,244.79 398.5,240C 374.778,231.063 363.111,213.897 363.5,188.5C 366.79,164.707 380.124,149.873 403.5,144C 428.822,141.574 446.989,151.74 458,174.5C 461.171,182.224 462.171,190.224 461,198.5C 459.662,204.679 457.828,210.679 455.5,216.5 Z"/></g>
<g><path style="opacity:1" fill="#fefefe" d="M 259.5,214.5 C 264.401,217.892 268.901,221.892 273,226.5C 291.663,254.654 310.497,282.654 329.5,310.5C 358.5,353.833 387.5,397.167 416.5,440.5C 306.499,440.667 196.499,440.5 86.5,440C 79.933,435.979 77.433,430.146 79,422.5C 97.4354,395.281 115.602,367.948 133.5,340.5C 159.891,302.072 186.058,263.405 212,224.5C 225.369,209.788 241.202,206.454 259.5,214.5 Z"/></g>
<g><path style="opacity:1" fill="#328bb7" d="M 363.5,188.5 C 363.111,213.897 374.778,231.063 398.5,240C 422.896,244.79 441.896,236.957 455.5,216.5C 455.262,222.639 453.095,227.973 449,232.5C 433.509,247.147 415.343,251.314 394.5,245C 381.99,239.151 371.99,230.485 364.5,219C 362.021,213.112 361.021,206.945 361.5,200.5C 361.509,196.107 362.176,192.107 363.5,188.5 Z"/></g>
<g><path style="opacity:1" fill="#ced8dd" d="M 442.5,440.5 C 442.918,439.778 443.584,439.278 444.5,439C 410.859,389.539 377.859,339.705 345.5,289.5C 348.665,285.502 352.332,282.002 356.5,279C 374.859,270.894 390.693,274.394 404,289.5C 433.667,333.5 463.333,377.5 493,421.5C 495.542,429.849 493.042,436.016 485.5,440C 471.171,440.5 456.837,440.667 442.5,440.5 Z"/></g>
<g><path style="opacity:1" fill="#c6d0d5" d="M 345.5,289.5 C 377.859,339.705 410.859,389.539 444.5,439C 443.584,439.278 442.918,439.778 442.5,440.5C 437.5,440.5 432.5,440.5 427.5,440.5C 427.611,439.883 427.944,439.383 428.5,439C 397.525,393.539 367.192,347.705 337.5,301.5C 339.808,297.205 342.474,293.205 345.5,289.5 Z"/></g>
<g><path style="opacity:1" fill="#b9c6cc" d="M 337.5,301.5 C 367.192,347.705 397.525,393.539 428.5,439C 427.944,439.383 427.611,439.883 427.5,440.5C 423.833,440.5 420.167,440.5 416.5,440.5C 387.5,397.167 358.5,353.833 329.5,310.5C 330.496,310.586 331.329,310.252 332,309.5C 333.609,306.593 335.442,303.927 337.5,301.5 Z"/></g>
<g><path style="opacity:0.912" fill="#2c91cf" d="M 572.5,480.5 C 572.5,483.167 572.5,485.833 572.5,488.5C 568.167,508.502 556.167,521.502 536.5,527.5C 369.833,527.5 203.167,527.5 36.5,527.5C 13.689,520.683 1.68899,505.35 0.5,481.5C 4.58834,502.426 16.9217,515.926 37.5,522C 203.5,522.667 369.5,522.667 535.5,522C 556.488,515.847 568.822,502.014 572.5,480.5 Z"/></g>
</svg>
